<?xml version="1.0" encoding="UTF-8" standalone="no"?>
<svg xmlns="http://www.w3.org/2000/svg" viewBox="0 0 100 100" width="100" height="100">
  <!-- Volcano base -->
  <path d="M10,80 L45,20 L55,20 L90,80 Z" fill="#1a0500" />
  
  <!-- Lava flow -->
  <path d="M45,20 L55,20 L60,30 L50,35 L40,30 Z" fill="#ff4500" />
  <path d="M40,30 L50,35 L60,30 L65,40 L55,50 L45,50 L35,40 Z" fill="#ff6a00" />
  <path d="M35,40 L45,50 L55,50 L65,40 L70,50 L60,65 L40,65 L30,50 Z" fill="#ff4500" />
  <path d="M30,50 L40,65 L60,65 L70,50 L75,60 L65,80 L35,80 L25,60 Z" fill="#ff6a00" />
  
  <!-- Lava eruption -->
  <circle cx="50" cy="15" r="5" fill="#ff4500" />
  <circle cx="50" cy="10" r="3" fill="#ff8c00" />
  
  <!-- Lava particles -->
  <circle cx="40" cy="25" r="2" fill="#ff4500" />
  <circle cx="60" cy="25" r="2" fill="#ff4500" />
  <circle cx="45" cy="15" r="1" fill="#ff8c00" />
  <circle cx="55" cy="15" r="1" fill="#ff8c00" />
</svg>
